<?xml version="1.0" encoding="UTF-8"?>
<!DOCTYPE svg PUBLIC "-//W3C//DTD SVG 1.1//EN" "http://www.w3.org/Graphics/SVG/1.1/DTD/svg11.dtd">
<svg xmlns="http://www.w3.org/2000/svg" version="1.1" 
     viewBox="0 0 1806 2048" 
     style="shape-rendering:geometricPrecision; text-rendering:geometricPrecision; image-rendering:optimizeQuality; fill-rule:evenodd; clip-rule:evenodd"
     xmlns:xlink="http://www.w3.org/1999/xlink">
  
  <defs>
    <style type="text/css">
      .muscle-part { cursor: pointer; transition: all 0.3s ease; }
      .muscle-part:hover { filter: drop-shadow(0 0 20px rgba(24, 144, 255, 0.9)) brightness(1.3); }
      .st0{fill:#222222;}
      .st1{fill:#343434;}
      .st2{fill:#555555;}
      .st3{fill:#757575;}
      .st4{fill:#646464;}
      .st5{fill:#3C3C3C;}
      .st6{fill:#373737;}
      .st7{fill:#525252;}
      .st8{fill:#7F7F7F;}
      .st9{fill:#929292;}
      .st10{fill:#B2B2B2;}
      .st11{fill:#777777;}
      .st12{fill:#454545;}
      .st13{fill:#303030;}
      .st14{fill:#494949;}
      .st15{fill:#636363;}
      .st16{fill:#8D8D8D;}
      .st17{fill:#AAAAAA;}
      .st18{fill:#D2D2D0;}
      .st19{fill:#E8E8E8;}
      .st20{fill:#C7C7C7;}
      .st21{fill:#A1A1A1;}
      .st22{fill:#898989;}
      .st23{fill:#686868;}
      .st24{fill:#4F4F4F;}
      .st25{fill:#171717;}
      .st26{fill:#1C1C1C;}
      .st27{fill:#4E4E4E;}
      .st28{fill:#8E8E8C;}
      .st29{fill:#B6B6B4;}
      .st30{fill:#C9C9C7;}
      .st31{fill:#A8A8A6;}
      .st32{fill:#7E7E7C;}
      .st33{fill:#585856;}
      .st34{fill:#393937;}
      .st35{fill:#474747;}
      .st36{fill:#727272;}
      .st37{fill:#9B9B9B;}
      .st38{fill:#D3D3D1;}
      .st39{fill:#CACAC8;}
      .st40{fill:#AFAFAD;}
      .st41{fill:#828280;}
      .st42{fill:#5C5C5A;}
      .st43{fill:#3A3A38;}
      .st44{fill:#242424;}
      .st45{fill:#8C8C8C;}
      .st46{fill:#A6A6A6;}
      .st47{fill:#DBDBDB;}
      .st48{fill:#BFBFBD;}
      .st49{fill:#90908E;}
      .st50{fill:#757573;}
      .st51{fill:#4D4D4B;}
      .st52{fill:#2D2D2B;}
      .st53{fill:#272727;}
      .st54{fill:#3F3F3F;}
      .st55{fill:#6E6E6E;}
      .st56{fill:#909090;}
      .st57{fill:#C6C6C6;}
      .st58{fill:#ACACAA;}
      .st59{fill:#949492;}
      .st60{fill:#7A7A78;}
      .st61{fill:#5D5D5B;}
      .st62{fill:#353533;}
      .st63{fill:#323232;}
      .st64{fill:#656565;}
      .st65{fill:#8B8B8B;}
      .st66{fill:#DDDDDB;}
      .st67{fill:#A3A3A1;}
      .st68{fill:#656563;}
      .st69{fill:#363634;}
      .st70{fill:#717171;}
      .st71{fill:#B5B6AE;}
      .st72{fill:#D0D1CC;}
      .st73{fill:#B3B3B1;}
      .st74{fill:#868684;}
      .st75{fill:#5F5F5D;}
      .st76{fill:#2F2F2F;}
      .st77{fill:#262626;}
      .st78{fill:#4A4A4A;}
      .st79{fill:#747474;}
      .st80{fill:#A8A8A8;}
      .st81{fill:#B9B9B7;}
      .st82{fill:#8A8A88;}
      .st83{fill:#AEAEAC;}
      .st84{fill:#828282;}
      .st85{fill:#595959;}
      .st86{fill:#282828;}
      .st87{fill:#6F6F6F;}
      .st88{fill:#919191;}
      .st89{fill:#ABABA9;}
      .st90{fill:#747570;}
      .st91{fill:#898A85;}
      .st92{fill:#9FA09B;}
      .st93{fill:#B2B2B0;}
      .st94{fill:#CECECC;}
      .st95{fill:#A3A3A3;}
      .st96{fill:#737373;}
      .st97{fill:#6C6C6C;}
      .st98{fill:#A4A4A4;}
      .st99{fill:#BCBCBA;}
      .st100{fill:#9C9C9A;}
      .st101{fill:#797977;}
      .st102{fill:#888886;}
      .st103{fill:#CDCDCB;}
      .st104{fill:#ABABAB;}
      .st105{fill:#626262;}
      .st106{fill:#353535;}
      .st107{fill:#1D1D1D;}
      .st108{fill:#3E3E3E;}
      .st109{fill:#A0A0A0;}
      .st110{fill:#C8C8C8;}
      .st111{fill:#C2C2C0;}
      .st112{fill:#9F9F9D;}
      .st113{fill:#CCCCCC;}
      .st114{fill:#A9A9A9;}
      .st115{fill:#545454;}
      .st116{fill:#2A2A2A;}
      .st117{fill:#363636;}
      .st118{fill:#9C9C9C;}
      .st119{fill:#C0C1BC;}
      .st120{fill:#A0A19C;}
      .st121{fill:#777775;}
      .st122{fill:#A6A6A4;}
      .st123{fill:#C9C9C9;}
      .st124{fill:#979797;}
      .st125{fill:#565656;}
      .st126{fill:#989898;}
      .st127{fill:#C9CAC5;}
      .st128{fill:#959691;}
      .st129{fill:#B8B8B8;}
      .st130{fill:#808080;}
      .st131{fill:#444444;}
      .st132{fill:#1F1F1F;}
      .st133{fill:#393939;}
      .st134{fill:#D1D1D1;}
      .st135{fill:#A8A9A4;}
      .st136{fill:#767676;}
      .st137{fill:#252525;}
      .st138{fill:#AEAEAE;}
      .st139{fill:#AAAAA8;}
      .st140{fill:#C0C0C0;}
      .st141{fill:#858585;}
      .st142{fill:#5E5E5E;}
      .st143{fill:#9A9A9A;}
      .st144{fill:#D9D9D7;}
      .st145{fill:#ACACAC;}
      .st146{fill:#858583;}
      .st147{fill:#BFBFBF;}
      .st148{fill:#959595;}
      .st149{fill:#606060;}
      .st150{fill:#BBBBBB;}
      .st151{fill:#767674;}
      .st152{fill:#8F8F8D;}
      .st153{fill:#E9E9E7;}
      .st154{fill:#9E9E9E;}
      .st155{fill:#515151;}
      .st156{fill:#4A494E;}
      .st157{fill:#929290;}
      .st158{fill:#444442;}
      .st159{fill:#212025;}
      .st160{fill:#919193;}
      .st161{fill:#989896;}
      .st162{fill:#73746F;}
      .st163{fill:#B5B5B3;}
      .st164{fill:#B8B8B6;}
      .st165{fill:#616065;}
      .st166{fill:#8D8C91;}
      .st167{fill:#B3B2B7;}
      .st168{fill:#3C3C3A;}
      .st169{fill:#7D7D7D;}
      .st170{fill:#A9A9A7;}
      .st171{fill:#545452;}
      .st172{fill:#242422;}
      .st173{fill:#383838;}
      .st174{fill:#848484;}
      .st175{fill:#9F9F9F;}
      .st176{fill:#D4D5D0;}
      .st177{fill:#5B5B59;}
      .st178{fill:#B0B0B0;}
      .st179{fill:#F1F1F1;}
      .st180{fill:#B9BAB5;}
      .st181{fill:#21211F;}
      .st182{fill:#747472;}
      .st183{fill:#575757;}
      .st184{fill:#C5C5C3;}
      .st185{fill:#DFDFDF;}
      .st186{fill:#9D9D9D;}
      .st187{fill:#999997;}
      .st188{fill:#6B6B6B;}
      .st189{fill:#DADAD8;}
      .st190{fill:#CCCCCA;}
      .st191{fill:#868686;}
      .st192{fill:#2D2D2D;}
      .st193{fill:#2B2B2B;}
      .st194{fill:#A2A2A2;}
      .st195{fill:#838383;}
      .st196{fill:#C6C6C4;}
      .st197{fill:#666666;}
      .st198{fill:#B6B6B6;}
      .st199{fill:#9D9D9B;}
      .st200{fill:#1E1E1E;}
      .st201{fill:#676767;}
      .st202{fill:#D0D0CE;}
      .st203{fill:#A7A7A7;}
      .st204{fill:#7B7B7B;}
      .st205{fill:#888888;}
      .st206{fill:#1A1A1A;}
      .st207{fill:#5F5F5F;}
      .st208{fill:#B1B1AF;}
      .st209{fill:#9B9B99;}
      .st210{fill:#E8E8E6;}
      .st211{fill:#434341;}
      .st212{fill:#4B4B4B;}
      .st213{fill:#787876;}
      .st214{fill:#A1A19F;}
      .st215{fill:#676765;}
      .st216{fill:#2A2A28;}
      .st217{fill:#999999;}
      .st218{fill:#A2A2A0;}
      .st219{fill:#585858;}
      .st220{fill:#898987;}
      .st221{fill:#727270;}
      .st222{fill:#4C4C4C;}
      .st223{fill:#979795;}
      .st224{fill:#424240;}
      .st225{fill:#5B5B5B;}
      .st226{fill:#9D9E99;}
      .st227{fill:#BBBCB7;}
      .st228{fill:#8D8D8B;}
      .st229{fill:#6A6A68;}
      .st230{fill:#222220;}
      .st231{fill:#DCDDD8;}
      .st232{fill:#858681;}
      .st233{fill:#CBCBC9;}
      .st234{fill:#6B6B69;}
      .st235{fill:#A9AAA5;}
      .st236{fill:#8E8E8E;}
      .st237{fill:#212121;}
      .st238{fill:#C0C0BE;}
      .st239{fill:#EEEEEC;}
      .st240{fill:#C8C8C6;}
      .st241{fill:#EBEBE9;}
      .st242{fill:#CDCEC9;}
      .st243{fill:#8D8E89;}
      .st244{fill:#414141;}
      .st245{fill:#787878;}
      .st246{fill:#B3B4AF;}
      .st247{fill:#B0B0AE;}
      .st248{fill:#D1D1CF;}
      .st249{fill:#BEBEBC;}
      .st250{fill:#B7B7B7;}
      .st251{fill:#F0F0EE;}
      .st252{fill:#2E2E2E;}
      .st253{fill:#D5D5D3;}
      .st254{fill:#DEDEDC;}
      .st255{fill:#8C8C8A;}
      .st256{fill:#7A7A7A;}
      .st257{fill:#969696;}
      .st258{fill:#6A6A6A;}
      .st259{fill:#3B3B3D;}
      .st260{fill:#BABAB8;}
      .st261{fill:#878785;}
      .st262{fill:#595957;}
      .st263{fill:#737277;}
      .st264{fill:#BEBEC0;}
      .st265{fill:#ADADAB;}
      .st266{fill:#A0A09E;}
      .st267{fill:#494947;}
      .st268{fill:#E3E3E1;}
      .st269{fill:#7D7E79;}
      .st270{fill:#262624;}
      .st271{fill:#EFEFED;}
      .st272{fill:#B7B7B5;}
      .st273{fill:#5E5E5C;}
      .st274{fill:#5C5C5C;}
      .st275{fill:#929294;}
      .st276{fill:#91918F;}
      .st277{fill:#BBBBB9;}
      .st278{fill:#C4C4C2;}
      .st279{fill:#A5A5A3;}
      .st280{fill:#505050;}
      .st281{fill:#F1F1EF;}
      .st282{fill:#CFCFCD;}
      .st283{fill:#1A1A18;}
      .st284{fill:#333331;}
      .st285{fill:#838381;}
      .st286{fill:#C2C2C2;}
      .st287{fill:#D4D4D2;}
      .st288{fill:#818181;}
      .st289{fill:#404040;}
      .st290{fill:#464646;}
      .st291{fill:#C5C5C5;}
      .st292{fill:#EAEBE6;}
      .st293{fill:#C3C3C1;}
      .st294{fill:#535353;}
      .st295{fill:#F2F2F0;}
      .st296{fill:#F3F3F1;}
      .st297{fill:#939393;}
      .st298{fill:#3B3B3B;}
      .st299{fill:#333333;}
      .st300{fill:#BFC0BB;}
      .st301{fill:#AFB0AB;}
      .st302{fill:#A7A7A5;}
      .st303{fill:#696969;}
      .st304{fill:#939391;}
      .st305{fill:#7E7E7E;}
      .st306{fill:#A5A6A1;}
      .st307{fill:#40403E;}
      .st308{fill:#9E9E9C;}
      .st309{fill:#BCBCBC;}
      .st310{fill:#424242;}
      .st311{fill:#4D4D4D;}
      .st312{fill:#0D0D0D;}
      .st313{fill:#8F8F8F;}
      .st314{fill:#A5A5A5;}
      .st315{fill:#484848;}
      .st316{fill:#959593;}
      .st317{fill:#9A9A98;}
      .st318{fill:#ACADA7;}
      .st319{fill:#3A3A3A;}
      .st320{fill:#787974;}
      .st321{fill:#D9DAD5;}
      .st322{fill:#F1F2ED;}
      .st323{fill:#5D5D5D;}
      .st324{fill:#969694;}
      .st325{fill:#6D6D6D;}
      .st326{fill:#191919;}
      .st327{fill:#D9D9D9;}
      .st328{fill:#A6A7A2;}
      .st329{fill:#F2F3EE;}
      .st330{fill:#CACACA;}
      .st331{fill:#313131;}
      .st332{fill:#BEBFBA;}
      .st333{fill:#D8D8D6;}
      .st334{fill:#C8C9C4;}
      .st335{fill:#D7D7D7;}
      .st336{fill:#C6C7C2;}
      .st337{fill:#B4B4B2;}
      .st338{fill:#AAABA6;}
      .st339{fill:#A1A29C;}
      .st340{fill:#CACBC5;}
      .st341{fill:#DFDFDD;}
      .st342{fill:#797979;}
      .st343{fill:#A2A39E;}
      .st344{fill:#707070;}
      .st345{fill:#D2D3CE;}
      .st346{fill:#7B7C76;}
      .st347{fill:#EFF0EB;}
      .st348{fill:#E8E9E4;}
      .st349{fill:#EEF3ED;}
      .st350{fill:#616161;}
      .st351{fill:#BABABA;}
      .st352{fill:#C3C3C3;}
      .st353{fill:#4B4B49;}
      .st354{fill:#454543;}
      .st355{fill:#404042;}
      .st356{fill:#A1A29D;}
      .st357{fill:#8B8B89;}
      .st358{fill:#4C4C4E;}
      .st359{fill:#DADBD5;}
      .st360{fill:#565654;}
      .st361{fill:#ECEDE8;}
      .st362{fill:#525250;}
      .st363{fill:#666664;}
      .st364{fill:#A4A4A2;}
      .st365{fill:#B0B1AB;}
      .st366{fill:#E1E1E3;}
      .st367{fill:#ABACA4;}
      .st368{fill:#CBCBCB;}
      .st369{fill:#E9E9E9;}
      .st370{fill:#A4A5A0;}
      .st371{fill:#DCDCDA;}
      .st372{fill:#B9B9B9;}
      .st373{fill:#ACADA8;}
      .st374{fill:#C0C1BB;}
      .st375{fill:#8C8D88;}
      .st376{fill:#A7A8A2;}
      .st377{fill:#D2D3CD;}
      .st378{fill:#C4C4C4;}
      .st379{fill:#B3B4AE;}
      .st380{fill:#D4D4D4;}
      .st381{fill:#5A5A5A;}
      .st382{fill:#8A8A8A;}
      .st383{fill:#949494;}
      .st384{fill:#878787;}
      .st385{fill:#7C7C7C;}
      .st386{fill:#D7D8D3;}
      .st387{fill:#303032;}
      .st388{fill:#ABACA6;}
      .st389{fill:#B4B5B0;}
      .st390{fill:#3F3F41;}
      .st391{fill:#CDCDCD;}
      .st392{fill:#313133;}
      .st393{fill:#B4B4B4;}
      .st394{fill:#C7C7C5;}
      .st395{fill:#BEBEBE;}
      .st396{fill:#F0F1EC;}
      .st397{fill:#D0D0D0;}
      .st398{fill:#AFAFAF;}
      .st399{fill:#B2B3AE;}
      .st400{fill:#D2D2D2;}
      .st401{fill:#B3B3B3;}
      .st402{fill:#434343;}
      .st403{fill:#ABACA7;}
      .st404{fill:#3D3D3D;}
      .st405{fill:#C5C6C1;}
      .st406{fill:#C1C1C1;}
      .st407{fill:#C1C1BF;}
      .st408{fill:#60605E;}
      .st409{fill:#ADAEA9;}
      .st410{fill:#4A4A48;}
      .st411{fill:#81817F;}
      .st412{fill:#BABBB5;}
      .st413{fill:#2C2C2A;}
      .st414{fill:#ADADAD;}
      .st415{fill:#A7A8A3;}
      .st416{fill:#CBCCC7;}
      .st417{fill:#BCBDB8;}
      .st418{fill:#202020;}
      .st419{fill:#D8D8D8;}
      .st420{fill:#E5E5E3;}
      .st421{fill:#D6D7D2;}
      .st422{fill:#B5B5B5;}
      .st423{fill:#F3F4EF;}
      .st424{fill:#CECFCA;}
      .st425{fill:#EBECE7;}
      .st426{fill:#BDBDBD;}
      .st427{fill:#B5B6B1;}
      .st428{fill:#F0F2ED;}
      .st429{fill:#8F908A;}
      .st430{fill:#C4C5C0;}
      .st431{fill:#CFCFCF;}
      .st432{fill:#5F5F61;}
      .st433{fill:#9E9F9A;}
      .st434{fill:#C2C3BE;}
      .st435{fill:#2C2C2C;}
      .st436{fill:#434247;}
      .st437{fill:#0F0E13;}
      .st438{fill:#6F6E73;}
      .st439{fill:#848482;}
      .st440{fill:#CFD0CB;}
      .st441{fill:#8C8F88;}
      .st442{fill:#E1E1DF;}
      .st443{fill:#F1F3EE;}
      .st444{fill:#E2E2E0;}
      .st445{fill:#B1B2AD;}
      .st446{fill:#494D4C;}
      .st447{fill:#303231;}
      .st448{fill:#7D8381;}
      .st449{fill:#EFEFEF;}
      .st450{fill:#656968;}
      .st451{fill:#101413;}
      .st452{fill:#3C403F;}
      .st453{fill:#CACBC6;}
      .st454{fill:#717670;}
      .st455{fill:#565B55;}
      .st456{fill:#B0AFAD;}
      .st457{fill:#181818;}
      .st458{fill:#D6D6D4;}
      .st459{fill:#71716F;}
      .st460{fill:#81827D;}
      .st461{fill:#DEDFDA;}
      .st462{fill:#989795;}
      .st463{fill:#BDBDBB;}
      .st464{fill:#232323;}
      .st465{fill:#CED0CF;}
      .st466{fill:#A8AEAA;}
      .st467{fill:#80807E;}
      .st468{fill:#F1F2EC;}
      .st469{fill:#DEDEDE;}
      .st470{fill:#E1E2DD;}
      .st471{fill:#7E7F7A;}
      .st472{fill:#8E8F8A;}
      .st473{fill:#DADBD6;}
      .st474{fill:#E4E5E0;}
      .st475{fill:#C1C2BD;}
      .st476{fill:#91928D;}
      .st477{fill:#80817C;}
      .st478{fill:#EFF1EC;}
      .st479{fill:#C3C4BE;}
      .st480{fill:#979892;}
      .st481{fill:#F0F0F0;}
      .st482{fill:#E0E0DE;}
      .st483{fill:#7F7F7D;}
      .st484{fill:#949590;}
      .st485{fill:#161616;}
      .st486{fill:#737371;}
      .st487{fill:#F8F9F4;}
      .st488{fill:#EFF1EE;}
      .st489{fill:#DCDDD7;}
      .st490{fill:#A8A9A3;}
      .st491{fill:#D2D3CB;}
      .st492{fill:#ACADA5;}
      .st493{fill:#8A8B85;}
      .st494{fill:#CCCEC3;}
      .st495{fill:#E1E1E1;}
      .st496{fill:#4F4F4D;}
      .st497{fill:#F6F7F1;}
      .st498{fill:#F3F5F0;}
      .st499{fill:#8B8C87;}
      .st500{fill:#E3E4DF;}
      .st501{fill:#535351;}
      .st502{fill:#555553;}
      .st503{fill:#8A8B86;}
      .st504{fill:#979893;}
      .st505{fill:#A5A6A0;}
      .st506{fill:#383836;}
      .st507{fill:#6C6C6A;}
      .st508{fill:#323230;}
      .st509{fill:#EFF0EA;}
      .st510{fill:#F7F9F4;}
      .st511{fill:#F6F7F2;}
      .st512{fill:#0B0A0F;}
      .st513{fill:#555459;}
      .st514{fill:#9D9D9F;}
      .st515{fill:#D3D4CF;}
      .st516{fill:#717075;}
      .st517{fill:#A8A7AC;}
      .st518{fill:#A8A8AA;}
      .st519{fill:#8F908B;}
      .st520{fill:#A3A49F;}
      .st521{fill:#DBDCD6;}
      .st522{fill:#9D9E98;}
      .st523{fill:#F8F9F3;}
      .st524{fill:#F4F5F0;}
      .st525{fill:#AEAFAA;}
      .st526{fill:#F7F8F3;}
      .st527{fill:#B1B1B1;}
      .st528{fill:#F7FAF3;}
      .st529{fill:#DFE0DB;}
      .st530{fill:#7B7B79;}
      .st531{fill:#F5F6F1;}
      .st532{fill:#6D6D6B;}
      .st533{fill:#DDDED9;}
      .st534{fill:#F5F7F2;}
      .st535{fill:#4C4C4A;}
      .st536{fill:#51514F;}
      .st537{fill:#252523;}
      .st538{fill:#1C1C1A;}
      .st539{fill:#7C7C7A;}
      .st540{fill:#4E4E4C;}
      .st541{fill:#3F3F3D;}
      .st542{fill:#474745;}
      .st543{fill:#F7F8F2;}
      .st544{fill:#B8B9B4;}
      .st545{fill:#D5D6D1;}
      .st546{fill:#9B9C97;}
      .st547{fill:#90918C;}
      .st548{fill:#F8F9F1;}
      .st549{fill:#B7B8B3;}
      .st550{fill:#1E1E1C;}
      .st551{fill:#BDBEB9;}
      .st552{fill:#343432;}
      .st553{fill:#5A5A58;}
      .st554{fill:#282826;}
      .st555{fill:#6F6F6D;}
      .st556{fill:#6E6E6C;}
      .st557{fill:#232321;}
      .st558{fill:#31312F;}
      .st559{fill:#BEBFB9;}
      .st560{fill:#C3C4BF;}
      .st561{fill:#373735;}
      .st562{fill:#F6F8F3;}
      .st563{fill:#30302E;}
      .st564{fill:#3D3D3B;}
      .st565{fill:#292927;}
      .st566{fill:#7D7D7B;}
      .st567{fill:#686866;}
      .st568{fill:#9C9D98;}
      .st569{fill:#2E2E2C;}
      .st570{fill:#999A95;}
      .st571{fill:#2B2B29;}
      .st572{fill:#BDBEB8;}
      .st573{fill:#181816;}
      .st574{fill:#484846;}
      .st575{fill:#646462;}
      .st576{fill:#DBDCD7;}
      .st577{fill:#E0DFDD;}
      .st578{fill:#969792;}
      .st579{fill:#605F5D;}
      .st580{fill:#6B6A68;}
      .st581{fill:#858482;}
      .st582{fill:#B2B1AF;}
      .st583{fill:#545351;}
      .st584{fill:#71706E;}
      .st585{fill:#2B2A28;}
      .st586{fill:#706F6D;}
      .st587{fill:#3E3E3C;}
      .st588{fill:#393836;}
      .st589{fill:#565553;}
      .st590{fill:#959492;}
      .st591{fill:#B8B7B5;}
      .st592{fill:#636361;}
      .st593{fill:#3C3B39;}
      .st594{fill:#C0BFBD;}
      .st595{fill:#747371;}
      .st596{fill:#888785;}
      .st597{fill:#5A5957;}
      .st598{fill:#949391;}
      .st599{fill:#646361;}
      .st600{fill:#C4C3C1;}
      .st601{fill:#5C5B59;}
      .st602{fill:#B7B6B4;}
      .st603{fill:#575755;}
      .st604{fill:#70706E;}
      .st605{fill:#5D5C5A;}
      .st606{fill:#6D6C6A;}
      .st607{fill:#696967;}
      .st608{fill:#3F3E3C;}
      .st609{fill:#7B7A78;}
      .st610{fill:#1A1917;}
      .st611{fill:#878684;}
      .st612{fill:#555452;}
      .st613{fill:#C7C8C3;}
      .st614{fill:#686765;}
      .st615{fill:#7C7B79;}
      .st616{fill:#2A2927;}
      .st617{fill:#ADACAA;}
      .st618{fill:#1B1B1B;}
      .st619{fill:#151515;}
      .st620{fill:#CCCDC8;}
      .st621{fill:#E9EAE5;}
      .st622{fill:#0B0B0B;}
      .st623{fill:#272725;}
      .st624{fill:#E4E5DF;}
      .st625{fill:#191917;}
      .st626{fill:#D8D7D5;}
      .st627{fill:#5F5E5C;}
      .st628{fill:#9E9D9B;}
      .st629{fill:#737270;}
      .st630{fill:#2E2D2B;}
      .st631{fill:#403F3D;}
      .st632{fill:#82817F;}
      .st633{fill:#575654;}
      .st634{fill:#41403E;}
      .st635{fill:#7D7C7A;}
      .st636{fill:#302F2D;}
      .st637{fill:#DBDBD9;}
      .st638{fill:#4C4B49;}
      .st639{fill:#92918F;}
      .st640{fill:#1F1F1D;}
      .st641{fill:#292929;}
      .st642{fill:#2F2F2D;}
      .st643{fill:#F5FAF4;}
      .st644{fill:#DDDDDD;}
      .st645{fill:#C4C0BF;}
      .st646{fill:#DEDFD9;}
      .st647{fill:#7A7B76;}
      .st648{fill:#121212;}
      .st649{fill:#A8A9A1;}
      .st650{fill:#E0E1DB;}
      .st651{fill:#A6A7A1;}
      .st652{fill:#737874;}
      .st653{fill:#D3D4CE;}
      .st654{fill:#9FA09A;}
      .st655{fill:#B7BAAF;}
      .st656{fill:#969897;}
      .st657{fill:#868885;}
      .st658{fill:#8A8D82;}
      .st659{fill:#D8DAD7;}
      .st660{fill:#F8F8F6;}
      .st661{fill:#696B66;}
      .st662{fill:#9A9C99;}
      .st663{fill:#F7F7F5;}
      .st664{fill:#82847F;}
      .st665{fill:#B7B9B6;}
      .st666{fill:#222421;}
      .st667{fill:#767B75;}
      .st668{fill:#A2A49F;}
      .st669{fill:#BEC5BE;}
      .st670{fill:#F5F5F3;}
      .st671{fill:#383D39;}
      .st672{fill:#9D9F9C;}
      .st673{fill:#A5ACA5;}
      .st674{fill:#181D19;}
      .st675{fill:#595E5A;}
      .st676{fill:#C1C6C2;}
      .st677{fill:#898B88;}
      .st678{fill:#5E605D;}
      .st679{fill:#7E8480;}
      .st680{fill:#B4B6B3;}
      .st681{fill:#474946;}
      .st682{fill:#6C6E6B;}
      .st683{fill:#A5A7A4;}
      .st684{fill:#2B2D2A;}
      .st685{fill:#494B48;}
      .st686{fill:#8A8C89;}
      .st687{fill:#B5B7B4;}
      .st688{fill:#8D8F8C;}
      .st689{fill:#6A6C69;}
      .st690{fill:#323431;}
      .st691{fill:#4F514E;}
      .st692{fill:#969698;}
      .st693{fill:#59585D;}
      .st694{fill:#F8F7F5;}
      .st695{fill:#F7F6F4;}
      .st696{fill:#2C2B30;}
      .st697{fill:#474749;}
      .st698{fill:#38383A;}
      .st699{fill:#6A6A6C;}
      .st700{fill:#90918B;}
      .st701{fill:#9F9FA1;}
      .st702{fill:#F6F6F4;}
      .st703{fill:#696A65;}
      .st704{fill:#3B3B39;}
      .st705{fill:#8E8F87;}
      .st706{fill:#B1B2AC;}
      .st707{fill:#93948F;}
      .st708{fill:#50504E;}
      .st709{fill:#E7E7E5;}
      .st710{fill:#EAEAEA;}
      .st711{fill:#61615F;}
      .st712{fill:#D7D7D5;}
      .st713{fill:#121210;}
      .st714{fill:#D6D6D6;}
      .st715{fill:#20201E;}
      .st716{fill:#F4F4F2;}
      .st717{fill:#1B1B19;}
      .st718{fill:#B6B7B2;}
      .st719{fill:#BABBB6;}
      .st720{fill:#111111;}
      .st721{fill:#989994;}
      .st722{fill:#B8B9B3;}
      .st723{fill:#878883;}
      .st724{fill:#BFC0BA;}
      .st725{fill:#B8B9B1;}
      .st726{fill:#94958F;}
      .st727{fill:#D8D9D4;}
      .st728{fill:#9A9B96;}
      .st729{fill:#F3F2F0;}
      .st730{fill:#5D5F5C;}
      .st731{fill:#242623;}
      .st732{fill:#1D1D1B;}
      .st733{fill:#363835;}
      .st734{fill:#1D1F1E;}
      .st735{fill:#1F2120;}
      .st736{fill:#131313;}
      .st737{fill:#41413F;}
      .st738{fill:#2D2C2A;}
      .st739{fill:#6E6D6B;}
      .st740{fill:#434544;}
      .st741{fill:#101211;}
      .st742{fill:#1B1A18;}
      .st743{fill:#3B3A38;}
      .st744{fill:#707271;}
      .st745{fill:#2A2C2B;}
      .st746{fill:#595B5A;}
      .st747{fill:#393B3A;}
      .st748{fill:#141311;}
      .st749{fill:#0F0F0F;}
      .st750{fill:#141414;}
      .st751{fill:#12110F;}
      .st752{fill:#0D0D0B;}
      .st753{fill:#CECECE;}
      .st754{fill:#D3D3D3;}
      .st755{fill:#CDC8CE;}
      .st756{fill:#888A87;}
      .st757{fill:#0E0E0E;}
      .st758{fill:#DAD8D9;}
      .st759{fill:#B3B1B2;}
      .st760{fill:#8E898F;}
      .st761{fill:#767477;}
      .st762{fill:#292E28;}
      .st763{fill:#B1AFB0;}
      .st764{fill:#989697;}
      .st765{fill:#797778;}
      .st766{fill:#4B494A;}
      .st767{fill:#2C2A2D;}
      .st768{fill:#939192;}
      .st769{fill:#605E5F;}
      .st770{fill:#302E2F;}
      .st771{fill:#464445;}
      .st772{fill:#1B191A;}
      .st773{fill:#EAEAE8;}
      .st774{fill:#E0DEDF;}
      .st775{fill:#AFAEAC;}
      .st776{fill:#898886;}
      .st777{fill:#0B0B09;}
      .st778{fill:#D1CFD0;}
      .st779{fill:#A7A5A6;}
      .st780{fill:#464543;}
      .st781{fill:#D0CFCD;}
      .st782{fill:#AFADAE;}
      .st783{fill:#949293;}
      .st784{fill:#6B696A;}
      .st785{fill:#555354;}
      .st786{fill:#626260;}
      .st787{fill:#EBEBEB;}
      .st788{fill:#9F9E9C;}
      .st789{fill:#636162;}
      .st790{fill:#3E3C3D;}
      .st791{fill:#232122;}
      .st792{fill:#E1E0DE;}
      .st793{fill:#BCBBB9;}
      .st794{fill:#838280;}
      .st795{fill:#BCBABB;}
      .st796{fill:#979694;}
      .st797{fill:#6C6B69;}
      .st798{fill:#3E3D3B;}
      .st799{fill:#4D4B4C;}
      .st800{fill:#696768;}
      .st801{fill:#8E8C8D;}
      .st802{fill:#CBC9CA;}
      .st803{fill:#373634;}
      .st804{fill:#444243;}
      .st805{fill:#727071;}
      .st806{fill:#929091;}
      .st807{fill:#BEBCBD;}
      .st808{fill:#5A5859;}
      .st809{fill:#817D7E;}
      .st810{fill:#B2B0B1;}
      .st811{fill:#2A2627;}
      .st812{fill:#504E4F;}
      .st813{fill:#D6DAD9;}
      .st814{fill:#D4D3D1;}
      .st815{fill:#7D7F7E;}
      .st816{fill:#999D9C;}
      .st817{fill:#D5D5D5;}
      .st818{fill:#282A29;}
      .st819{fill:#C6C5C3;}
      .st820{fill:#AAA9A7;}
      .st821{fill:#A4A3A1;}
      .st822{fill:#8A8987;}
      .st823{fill:#62615F;}
      .st824{fill:#434240;}
      .st825{fill:#535250;}
      .st826{fill:#343331;}
      .st827{fill:#C8C7C5;}
      .st828{fill:#31302E;}
      .st829{fill:#8E8D8B;}
      .st830{fill:#ABAAA8;}
      .st831{fill:#CFCECC;}
      .st832{fill:#969593;}
      .st833{fill:#545550;}
      .st834{fill:#4E4F4A;}
      .st835{fill:#2D2E29;}
      .st836{fill:#C1C0BE;}
      .st837{fill:#8D8C8A;}
      .st838{fill:#B3B2B0;}
      .st839{fill:#2C2B29;}
      .st840{fill:#444341;}
      .st841{fill:#BFBEBC;}
      .st842{fill:#4F4E4C;}
      .st843{fill:#E5E6E1;}
      .st844{fill:#E0E0E0;}
      .st845{fill:#E6E5E3;}
      .st846{fill:#EBEAE8;}
      .st847{fill:#3A3937;}
      .st848{fill:#8F8E8C;}
      .st849{fill:#D5D4D2;}
      .st850{fill:#E2E1DF;}
      .st851{fill:#939290;}
      .st852{fill:#7F7E7C;}
      .st853{fill:#454442;}
      .st854{fill:#7E7D7B;}
      .st855{fill:#CDCCCA;}
      .st856{fill:#A09F9D;}
      .st857{fill:#494846;}
      .st858{fill:#252422;}
      .st859{fill:#A5A4A2;}
      .st860{fill:#5E5D5B;}
      .st861{fill:#E7E7E7;}
      .st862{fill:#DADADA;}
      .st863{fill:#B9B8B6;}
      .st864{fill:#D6D5D3;}
      .st865{fill:#908F8D;}
      .st866{fill:#B6B5B3;}
      .st867{fill:#91908E;}
      .st868{fill:#72716F;}
      .st869{fill:#CECDCB;}
      .st870{fill:#7A7977;}
      .st871{fill:#4B4A48;}
      .st872{fill:#262523;}
    </style>
    
    <!-- 头部符号 -->
    <symbol id="head-part" viewBox="0 0 1806 2048">
      <g id="head">
        <path class="st0" d="M936,316c6.7,2.8,16.8,1,24,1C953.3,314.2,943.2,316,936,316z"/>
        <path class="st1" d="M920,317c2.1,0.9,3.7,1,6,1C923.9,317.1,922.3,317,920,317z"/>
        <path class="st2" d="M926,317c1.8,0.8,3,0.9,5,1C929.2,317.2,928,317.1,926,317z"/>
        <path class="st3" d="M931,317c7.9,3.3,20.4,1,29,1C952.1,314.7,939.6,317,931,317z"/>
        <path class="st4" d="M960,317c1.5,0.7,2.3,0.8,4,1C962.5,317.3,961.7,317.2,960,317z"/>
        <path class="st5" d="M964,317c1.5,0.7,2.3,0.8,4,1C966.5,317.3,965.7,317.2,964,317z"/>
        <path class="st6" d="M906,318c3.2,1.3,6.6,1,10,1C912.8,317.7,909.4,318,906,318z"/>
        <path class="st7" d="M916,318c1.5,0.7,2.3,0.8,4,1C918.5,318.3,917.7,318.2,916,318z"/>
        <path class="st8" d="M920,318c2.1,0.9,3.7,1,6,1C923.9,318.1,922.3,318,920,318z"/>
        <path class="st9" d="M926,318c2.3,1,4.5,1,7,1C930.7,318,928.5,318,926,318z"/>
        <path class="st10" d="M933,318c3.7,1.6,8,1,12,1h20c-3.7-1.6-8-1-12-1H933z"/>
        <path class="st11" d="M965,318c1.8,0.8,3,0.9,5,1C968.2,318.2,967,318.1,965,318z"/>
        <path class="st12" d="M970,318c3.2,1.3,6.6,1,10,1C976.8,317.7,973.4,318,970,318z"/>
        <path class="st13" d="M899.7,319.3c-0.4,0.4,0.6,0.4,0.7,0.3C900.8,319.2,899.7,319.3,899.7,319.3z"/>
        <path class="st14" d="M901,319c1.2,0.7,1.5,0.7,3,1C902.8,319.3,902.5,319.3,901,319z"/>
        <path class="st15" d="M904,319c1.2,0.7,1.5,0.7,3,1C905.8,319.3,905.5,319.3,904,319z"/>
        <path class="st16" d="M907,319c2.9,1.2,5.9,1,9,1C913.1,318.8,910.1,319,907,319z"/>
        <path class="st17" d="M916,319c2.3,1,4.5,1,7,1C920.7,319,918.5,319,916,319z"/>
        <path class="st18" d="M912,320c7.1,3,17.5,0.9,25,0.2c7.6-0.7,15.4-0.2,23-0.2c-4.5-1.9-10.2-1-15-1C934,319,923,320,912,320z"/>
        <path class="st19" d="M816,341c2.9,1.1,5.9,0.2,9,0c-2.4,1.2-4.3,1.7-7,2c6.4,2.6,13.5-3.2,20-3.9c7.3-0.8,14-3.4,21.1-4.8c6.9-1.4,14-1.6,20.9-2.7c9.1-1.4,17.9-3.8,27-5.3c20.6-3.4,43.6-1.9,64.1,0.6c8,1,15.8,0.3,23.9,1.9c16.7,3.3,33.2,8.4,50,11.2c-0.7-1.3-0.2-1-2-1c6.5-1.5,11.2-3.1,18-3c-6.6-3.5-16.6-4.3-24-5.4c-10.1-1.5-20-4.1-30-5.8c-38.1-6.4-76.7-6-115-1c-5.3,0.7-10.7-0.2-16,0.6c-4.6,0.7-8.6,2.8-13,4C847.3,332.7,831.8,337.2,816,341z"/>
        <path class="st20" d="M961,319c2.3,1,4.5,1,7,1C965.7,319,963.5,319,961,319z"/>
        <path class="st21" d="M968,319c2.6,1.1,5.2,1,8,1C973.4,318.9,970.8,319,968,319z"/>
        <path class="st22" d="M976,319c1.8,0.8,3,0.9,5,1C979.2,319.2,978,319.1,976,319z"/>
        <path class="st23" d="M981,319c1.2,0.7,1.5,0.7,3,1C982.8,319.3,982.5,319.3,981,319z"/>
        <path class="st24" d="M984,319c1.2,0.7,1.5,0.7,3,1C985.8,319.3,985.5,319.3,984,319z"/>
        <path class="st25" d="M987,319c1.8,0.8,3,0.9,5,1C990.2,319.2,989,319.1,987,319z"/>
        <path class="st26" d="M888,320c1.2,0.7,1.5,0.7,3,1C889.8,320.3,889.5,320.3,888,320z"/>
        <path class="st27" d="M891,320c2.6,1.1,5.2,1,8,1C896.4,319.9,893.8,320,891,320z"/>
        <path class="st28" d="M899,320c1.8,0.8,3,0.9,5,1C902.2,320.2,901,320.1,899,320z"/>
        <path class="st29" d="M904,320c2.6,1.1,5.2,1,8,1C909.4,319.9,906.8,320,904,320z"/>
        <path class="st30" d="M973,320c2.3,1,4.5,1,7,1C977.7,320,975.5,320,973,320z"/>
        <path class="st31" d="M980,320c1.8,0.8,3,0.9,5,1C983.2,320.2,982,320.1,980,320z"/>
        <path class="st32" d="M985,320c1.8,0.8,3,0.9,5,1C988.2,320.2,987,320.1,985,320z"/>
        <path class="st33" d="M990,320c1.5,0.7,2.3,0.8,4,1C992.5,320.3,991.7,320.2,990,320z"/>
        <path class="st34" d="M994,320c1.2,0.7,1.5,0.7,3,1C995.8,320.3,995.5,320.3,994,320z"/>
        <path class="st35" d="M877,322c3.6,1.5,7.2,0.3,11,0C884.4,320.5,880.8,321.7,877,322z"/>
        <path class="st36" d="M888,321c1.2,0.7,1.5,0.7,3,1C889.8,321.3,889.5,321.3,888,321z"/>
        <path class="st37" d="M891,321c2.6,1.1,5.2,1,8,1C896.4,320.9,893.8,321,891,321z"/>
        <path class="st38" d="M899,321c2.6,1.1,5.2,1,8,1C904.4,320.9,901.8,321,899,321z"/>
        <path class="st39" d="M986,321c1.5,0.7,2.3,0.8,4,1C988.5,321.3,987.7,321.2,986,321z"/>
        <path class="st40" d="M990.7,321.3c-0.4,0.4,0.6,0.4,0.7,0.3C991.8,321.2,990.7,321.3,990.7,321.3z"/>
        <path class="st41" d="M992,321c1.8,0.8,3,0.9,5,1C995.2,321.2,994,321.1,992,321z"/>
        <path class="st42" d="M997,321c1.2,0.7,1.5,0.7,3,1C998.8,321.3,998.5,321.3,997,321z"/>
        <path class="st43" d="M1000,321c1.2,0.7,1.5,0.7,3,1C1001.8,321.3,1001.5,321.3,1000,321z"/>
        <path class="st44" d="M875.7,322.3c-0.4,0.4,0.6,0.4,0.7,0.3C876.8,322.2,875.7,322.3,875.7,322.3z"/>
        <path class="st45" d="M883.7,322.3c-0.4,0.4,0.6,0.4,0.7,0.3C884.8,322.2,883.7,322.3,883.7,322.3z"/>
        <path class="st46" d="M885,322c1.2,0.7,1.5,0.7,3,1C886.8,322.3,886.5,322.3,885,322z"/>
        <path class="st47" d="M886,323c4.2,1.7,8.6,0.3,13,0C894.9,321.3,890.2,322,886,323z"/>
        <path class="st48" d="M995,322c1.2,0.7,1.5,0.7,3,1C996.8,322.3,996.5,322.3,995,322z"/>
        <path class="st49" d="M998,322c1.5,0.7,2.3,0.8,4,1C1000.5,322.3,999.7,322.2,998,322z"/>
        <path class="st50" d="M1002,322c1.2,0.7,1.5,0.7,3,1C1003.8,322.3,1003.5,322.3,1002,322z"/>
        <path class="st51" d="M1005,322c1.2,0.7,1.5,0.7,3,1C1006.8,322.3,1006.5,322.3,1005,322z"/>
        <path class="st52" d="M1008.7,322.3c-0.5,0.4,0.6,0.4,0.7,0.3C1009.8,322.2,1008.7,322.3,1008.7,322.3z"/>
      </g>
    </symbol>

    <!-- 右上肢符号 -->
    <symbol id="rightArm-part" viewBox="0 0 1806 2048">
      <g id="rightArm">
        <path fill="#8B8B8B" d="M1580,450 L1620,470 L1610,520 L1590,510 Z"/>
        <path fill="#7A7A7A" d="M1590,510 L1610,520 L1600,580 L1580,570 Z"/>
      </g>
    </symbol>

    <!-- 左上肢符号 -->
    <symbol id="leftArm-part" viewBox="0 0 1806 2048">
      <g id="leftArm">
        <path fill="#8B8B8B" d="M180,450 L140,470 L150,520 L170,510 Z"/>
        <path fill="#7A7A7A" d="M170,510 L150,520 L160,580 L180,570 Z"/>
      </g>
    </symbol>

    <!-- 躯干符号 -->
    <symbol id="trunk-part" viewBox="0 0 1806 2048">
      <g id="trunk">
        <path fill="#6A6A6A" d="M700,400 L1050,400 L1080,800 L670,800 Z"/>
      </g>
    </symbol>

    <!-- 右下肢符号 -->
    <symbol id="rightLeg-part" viewBox="0 0 1806 2048">
      <g id="rightLeg">
        <path fill="#5A5A5A" d="M750,800 L900,800 L880,1200 L770,1200 Z"/>
      </g>
    </symbol>

    <!-- 左下肢符号 -->
    <symbol id="leftLeg-part" viewBox="0 0 1806 2048">
      <g id="leftLeg">
        <path fill="#5A5A5A" d="M850,800 L1000,800 L980,1200 L870,1200 Z"/>
      </g>
    </symbol>
  </defs>

  <!-- 组合身体图像 -->
  <g id="muscle-body" class="muscle-chart">
    <!-- 头部 -->
    <g id="head-group" class="muscle-part" data-part="head">
      <use href="#head-part" x="0" y="0" width="1806" height="2048"/>
    </g>
    
    <!-- 右上肢 -->
    <g id="rightArm-group" class="muscle-part" data-part="rightArm">
      <use href="#rightArm-part" x="0" y="0" width="1806" height="2048"/>
    </g>
    
    <!-- 左上肢 -->
    <g id="leftArm-group" class="muscle-part" data-part="leftArm">
      <use href="#leftArm-part" x="0" y="0" width="1806" height="2048"/>
    </g>
    
    <!-- 躯干 -->
    <g id="trunk-group" class="muscle-part" data-part="trunk">
      <use href="#trunk-part" x="0" y="0" width="1806" height="2048"/>
    </g>
    
    <!-- 右下肢 -->
    <g id="rightLeg-group" class="muscle-part" data-part="rightLeg">
      <use href="#rightLeg-part" x="0" y="0" width="1806" height="2048"/>
    </g>
    
    <!-- 左下肢 -->
    <g id="leftLeg-group" class="muscle-part" data-part="leftLeg">
      <use href="#leftLeg-part" x="0" y="0" width="1806" height="2048"/>
    </g>
  </g>
</svg>
