<?xml version="1.0" standalone="no"?><!DOCTYPE svg PUBLIC "-//W3C//DTD SVG 1.1//EN" "http://www.w3.org/Graphics/SVG/1.1/DTD/svg11.dtd"><svg t="1774260791181" class="icon" viewBox="0 0 1024 1024" version="1.1" xmlns="http://www.w3.org/2000/svg" p-id="2220" xmlns:xlink="http://www.w3.org/1999/xlink" width="200" height="200"><path d="M921.6 228.11093333a34.03946667 34.03946667 0 0 1-24.13226667-10.00106666l-102.4-102.40000001c-13.34613333-13.34613333-13.34613333-34.9184 0-48.26453333s34.9184-13.34613333 48.26453334 0l102.4 102.4c13.34613333 13.34613333 13.34613333 34.9184 0 48.26453334A34.03946667 34.03946667 0 0 1 921.6 228.11093333z m-817.90293333-2.11626667a34.03946667 34.03946667 0 0 1-24.13226667-10.00106666c-13.34613333-13.34613333-13.34613333-34.9184 0-48.26453333l102.4-102.40000001c13.34613333-13.34613333 34.9184-13.34613333 48.26453333 0s13.34613333 34.9184 0 48.26453334l-102.4 102.4c-6.656 6.69013333-15.39413333 10.00106667-24.13226666 10.00106666z m637.2352 128.64853333c13.34613333-13.34613333 13.34613333-34.9184 0-48.26453332s-34.9184-13.34613333-48.26453334 0l-136.53333333 136.53333333c-0.1024 0.06826667-0.1024 0.2048-0.2048 0.3072-13.4144-6.41706667-28.16-10.30826667-43.9296-10.30826668s-30.58346667 3.8912-43.9296 10.30826668c-0.06826667-0.1024-0.1024-0.2048-0.2048-0.3072l-102.4-102.40000001c-13.34613333-13.34613333-34.9184-13.34613333-48.26453333 0s-13.34613333 34.9184 0 48.26453334l102.4 102.4c0.06826667 0.06826667 0.2048 0.1024 0.3072 0.2048-6.41706667 13.34613333-10.30826667 28.12586667-10.30826667 43.9296 0 56.45653333 45.94346667 102.4 102.4 102.4s102.4-45.9776 102.4-102.4c0-15.7696-3.8912-30.58346667-10.30826667-43.9296 0.1024-0.06826667 0.2048-0.1024 0.3072-0.2048l136.53333334-136.53333334zM512 569.4784c-18.80746667 0-34.13333333-15.32586667-34.13333333-34.13333334s15.32586667-34.13333333 34.13333333-34.13333333 34.13333333 15.32586667 34.13333333 34.13333333-15.32586667 34.13333333-34.13333333 34.13333334z" fill="#63cfff" p-id="2221"></path><path d="M829.7472 844.38826666C907.53706667 764.48213333 955.73333333 655.42613333 955.73333333 535.31093333c0-244.66773333-199.0656-443.73333333-443.73333333-443.73333333s-443.73333333 199.0656-443.73333333 443.73333333c0 120.9344 48.7424 230.6048 127.488 310.74986667l-52.15573334 78.91626667c-10.37653333 15.73546667-6.07573333 36.93226667 9.65973334 47.27466666 5.80266667 3.82293333 12.32213333 5.66613333 18.77333333 5.66613334 11.09333333 0 21.94773333-5.3248 28.50133333-15.29173334l47.3088-71.64586666c73.89866667 55.02293333 165.13706667 88.064 264.15786667 88.064 99.80586667 0 191.72693333-33.51893333 265.9328-89.3952l48.40106667 70.99733333c6.58773333 9.65973333 17.33973333 14.91626667 28.22826666 14.91626666 6.62186667 0 13.312-1.97973333 19.18293334-5.97333333 15.59893333-10.6496 19.59253333-31.88053333 9.0112-47.4112l-53.00906667-77.78986667zM136.53333333 535.31093333c0-207.01866667 168.448-375.46666667 375.46666667-375.46666666 206.98453333 0 375.46666667 168.448 375.46666667 375.46666666s-168.48213333 375.46666667-375.46666667 375.46666667c-207.01866667 0.03413333-375.46666667-168.448-375.46666667-375.46666667z" fill="#63cfff" p-id="2222"></path></svg>